ply
format ascii 1.0
comment made by Greg Turk
comment this file is a cube
element vertex 8      
property float x        
property float y       
property float z       
element face 6          
property list uchar int vertex_indices
element material 1
property uchar ambient_red     
property uchar ambient_green 
property uchar ambient_blue 
property float ambient_coeff
property uchar diffuse_red         
property uchar diffuse_green 
property uchar diffuse_blue 
property float diffuse_coeff 
property uchar specular_red        
property uchar specular_green 
property uchar specular_blue 
property float specular_coeff
property float specular_power   
property float opacity   
end_header             
0 0 0             
0 0 1
0 1 1
0 1 0
1 0 0
1 0 1
1 1 1
1 1 0
4 0 1 2 3          
4 7 6 5 4
4 0 4 5 1
4 1 5 6 2
4 2 6 7 3
4 3 7 4 0
255 255 255 0.3 255 255 255 0.4 255 255 255 0.6 0.4 1.0